P3
64 64
255
0 0 0 4 0 4 8 0 8 12 0 12 16 0 16 20 0 20 24 0 24 28 0 28 32 0 32 36 0 36 40 0 40 44 0 44 48 0 48 52 0 52 56 0 56 60 0 60 64 0 64 68 0 68 72 0 72 76 0 76 80 0 80 85 0 85 89 0 89 93 0 93 97 0 97 101 0 101 105 0 105 109 0 109 113 0 113 117 0 117 121 0 121 125 0 125 129 0 129 133 0 133 137 0 137 141 0 141 145 0 145 149 0 149 153 0 153 157 0 157 161 0 161 165 0 165 170 0 170 174 0 174 178 0 178 182 0 182 186 0 186 190 0 190 194 0 194 198 0 198 202 0 202 206 0 206 210 0 210 214 0 214 218 0 218 222 0 222 226 0 226 230 0 230 234 0 234 238 0 238 242 0 242 246 0 246 250 0 250 255 0 255
0 4 4 4 4 0 8 4 12 12 4 8 16 4 20 20 4 16 24 4 28 28 4 24 32 4 36 36 4 32 40 4 44 44 4 40 48 4 52 52 4 48 56 4 60 60 4 56 64 4 68 68 4 64 72 4 76 76 4 72 80 4 85 85 4 80 89 4 93 93 4 89 97 4 101 101 4 97 105 4 109 109 4 105 113 4 117 117 4 113 121 4 125 125 4 121 129 4 133 133 4 129 137 4 141 141 4 137 145 4 149 149 4 145 153 4 157 157 4 153 161 4 165 165 4 161 170 4 174 174 4 170 178 4 182 182 4 178 186 4 190 190 4 186 194 4 198 198 4 194 202 4 206 206 4 202 210 4 214 214 4 210 218 4 222 222 4 218 226 4 230 230 4 226 234 4 238 238 4 234 242 4 246 246 4 242 250 4 255 255 4 250
0 8 8 4 8 12 8 8 0 12 8 4 16 8 24 20 8 28 24 8 16 28 8 20 32 8 40 36 8 44 40 8 32 44 8 36 48 8 56 52 8 60 56 8 48 60 8 52 64 8 72 68 8 76 72 8 64 76 8 68 80 8 89 85 8 93 89 8 80 93 8 85 97 8 105 101 8 109 105 8 97 109 8 101 113 8 121 117 8 125 121 8 113 125 8 117 129 8 137 133 8 141 137 8 129 141 8 133 145 8 153 149 8 157 153 8 145 157 8 149 161 8 170 165 8 174 170 8 161 174 8 165 178 8 186 182 8 190 186 8 178 190 8 182 194 8 202 198 8 206 202 8 194 206 8 198 210 8 218 214 8 222 218 8 210 222 8 214 226 8 234 230 8 238 234 8 226 238 8 230 242 8 250 246 8 255 250 8 242 255 8 246
0 12 12 4 12 8 8 12 4 12 12 0 16 12 28 20 12 24 24 12 20 28 12 16 32 12 44 36 12 40 40 12 36 44 12 32 48 12 60 52 12 56 56 12 52 60 12 48 64 12 76 68 12 72 72 12 68 76 12 64 80 12 93 85 12 89 89 12 85 93 12 80 97 12 109 101 12 105 105 12 101 109 12 97 113 12 125 117 12 121 121 12 117 125 12 113 129 12 141 133 12 137 137 12 133 141 12 129 145 12 157 149 12 153 153 12 149 157 12 145 161 12 174 165 12 170 170 12 165 174 12 161 178 12 190 182 12 186 186 12 182 190 12 178 194 12 206 198 12 202 202 12 198 206 12 194 210 12 222 214 12 218 218 12 214 222 12 210 226 12 238 230 12 234 234 12 230 238 12 226 242 12 255 246 12 250 250 12 246 255 12 242
0 16 16 4 16 20 8 16 24 12 16 28 16 16 0 20 16 4 24 16 8 28 16 12 32 16 48 36 16 52 40 16 56 44 16 60 48 16 32 52 16 36 56 16 40 60 16 44 64 16 80 68 16 85 72 16 89 76 16 93 80 16 64 85 16 68 89 16 72 93 16 76 97 16 113 101 16 117 105 16 121 109 16 125 113 16 97 117 16 101 121 16 105 125 16 109 129 16 145 133 16 149 137 16 153 141 16 157 145 16 129 149 16 133 153 16 137 157 16 141 161 16 178 165 16 182 170 16 186 174 16 190 178 16 161 182 16 165 186 16 170 190 16 174 194 16 210 198 16 214 202 16 218 206 16 222 210 16 194 214 16 198 218 16 202 222 16 206 226 16 242 230 16 246 234 16 250 238 16 255 242 16 226 246 16 230 250 16 234 255 16 238
0 20 20 4 20 16 8 20 28 12 20 24 16 20 4 20 20 0 24 20 12 28 20 8 32 20 52 36 20 48 40 20 60 44 20 56 48 20 36 52 20 32 56 20 44 60 20 40 64 20 85 68 20 80 72 20 93 76 20 89 80 20 68 85 20 64 89 20 76 93 20 72 97 20 117 101 20 113 105 20 125 109 20 121 113 20 101 117 20 97 121 20 109 125 20 105 129 20 149 133 20 145 137 20 157 141 20 153 145 20 133 149 20 129 153 20 141 157 20 137 161 20 182 165 20 178 170 20 190 174 20 186 178 20 165 182 20 161 186 20 174 190 20 170 194 20 214 198 20 210 202 20 222 206 20 218 210 20 198 214 20 194 218 20 206 222 20 202 226 20 246 230 20 242 234 20 255 238 20 250 242 20 230 246 20 226 250 20 238 255 20 234
0 24 24 4 24 28 8 24 16 12 24 20 16 24 8 20 24 12 24 24 0 28 24 4 32 24 56 36 24 60 40 24 48 44 24 52 48 24 40 52 24 44 56 24 32 60 24 36 64 24 89 68 24 93 72 24 80 76 24 85 80 24 72 85 24 76 89 24 64 93 24 68 97 24 121 101 24 125 105 24 113 109 24 117 113 24 105 117 24 109 121 24 97 125 24 101 129 24 153 133 24 157 137 24 145 141 24 149 145 24 137 149 24 141 153 24 129 157 24 133 161 24 186 165 24 190 170 24 178 174 24 182 178 24 170 182 24 174 186 24 161 190 24 165 194 24 218 198 24 222 202 24 210 206 24 214 210 24 202 214 24 206 218 24 194 222 24 198 226 24 250 230 24 255 234 24 242 238 24 246 242 24 234 246 24 238 250 24 226 255 24 230
0 28 28 4 28 24 8 28 20 12 28 16 16 28 12 20 28 8 24 28 4 28 28 0 32 28 60 36 28 56 40 28 52 44 28 48 48 28 44 52 28 40 56 28 36 60 28 32 64 28 93 68 28 89 72 28 85 76 28 80 80 28 76 85 28 72 89 28 68 93 28 64 97 28 125 101 28 121 105 28 117 109 28 113 113 28 109 117 28 105 121 28 101 125 28 97 129 28 157 133 28 153 137 28 149 141 28 145 145 28 141 149 28 137 153 28 133 157 28 129 161 28 190 165 28 186 170 28 182 174 28 178 178 28 174 182 28 170 186 28 165 190 28 161 194 28 222 198 28 218 202 28 214 206 28 210 210 28 206 214 28 202 218 28 198 222 28 194 226 28 255 230 28 250 234 28 246 238 28 242 242 28 238 246 28 234 250 28 230 255 28 226
0 32 32 4 32 36 8 32 40 12 32 44 16 32 48 20 32 52 24 32 56 28 32 60 32 32 0 36 32 4 40 32 8 44 32 12 48 32 16 52 32 20 56 32 24 60 32 28 64 32 97 68 32 101 72 32 105 76 32 109 80 32 113 85 32 117 89 32 121 93 32 125 97 32 64 101 32 68 105 32 72 109 32 76 113 32 80 117 32 85 121 32 89 125 32 93 129 32 161 133 32 165 137 32 170 141 32 174 145 32 178 149 32 182 153 32 186 157 32 190 161 32 129 165 32 133 170 32 137 174 32 141 178 32 145 182 32 149 186 32 153 190 32 157 194 32 226 198 32 230 202 32 234 206 32 238 210 32 242 214 32 246 218 32 250 222 32 255 226 32 194 230 32 198 234 32 202 238 32 206 242 32 210 246 32 214 250 32 218 255 32 222
0 36 36 4 36 32 8 36 44 12 36 40 16 36 52 20 36 48 24 36 60 28 36 56 32 36 4 36 36 0 40 36 12 44 36 8 48 36 20 52 36 16 56 36 28 60 36 24 64 36 101 68 36 97 72 36 109 76 36 105 80 36 117 85 36 113 89 36 125 93 36 121 97 36 68 101 36 64 105 36 76 109 36 72 113 36 85 117 36 80 121 36 93 125 36 89 129 36 165 133 36 161 137 36 174 141 36 170 145 36 182 149 36 178 153 36 190 157 36 186 161 36 133 165 36 129 170 36 141 174 36 137 178 36 149 182 36 145 186 36 157 190 36 153 194 36 230 198 36 226 202 36 238 206 36 234 210 36 246 214 36 242 218 36 255 222 36 250 226 36 198 230 36 194 234 36 206 238 36 202 242 36 214 246 36 210 250 36 222 255 36 218
0 40 40 4 40 44 8 40 32 12 40 36 16 40 56 20 40 60 24 40 48 28 40 52 32 40 8 36 40 12 40 40 0 44 40 4 48 40 24 52 40 28 56 40 16 60 40 20 64 40 105 68 40 109 72 40 97 76 40 101 80 40 121 85 40 125 89 40 113 93 40 117 97 40 72 101 40 76 105 40 64 109 40 68 113 40 89 117 40 93 121 40 80 125 40 85 129 40 170 133 40 174 137 40 161 141 40 165 145 40 186 149 40 190 153 40 178 157 40 182 161 40 137 165 40 141 170 40 129 174 40 133 178 40 153 182 40 157 186 40 145 190 40 149 194 40 234 198 40 238 202 40 226 206 40 230 210 40 250 214 40 255 218 40 242 222 40 246 226 40 202 230 40 206 234 40 194 238 40 198 242 40 218 246 40 222 250 40 210 255 40 214
0 44 44 4 44 40 8 44 36 12 44 32 16 44 60 20 44 56 24 44 52 28 44 48 32 44 12 36 44 8 40 44 4 44 44 0 48 44 28 52 44 24 56 44 20 60 44 16 64 44 109 68 44 105 72 44 101 76 44 97 80 44 125 85 44 121 89 44 117 93 44 113 97 44 76 101 44 72 105 44 68 109 44 64 113 44 93 117 44 89 121 44 85 125 44 80 129 44 174 133 44 170 137 44 165 141 44 161 145 44 190 149 44 186 153 44 182 157 44 178 161 44 141 165 44 137 170 44 133 174 44 129 178 44 157 182 44 153 186 44 149 190 44 145 194 44 238 198 44 234 202 44 230 206 44 226 210 44 255 214 44 250 218 44 246 222 44 242 226 44 206 230 44 202 234 44 198 238 44 194 242 44 222 246 44 218 250 44 214 255 44 210
0 48 48 4 48 52 8 48 56 12 48 60 16 48 32 20 48 36 24 48 40 28 48 44 32 48 16 36 48 20 40 48 24 44 48 28 48 48 0 52 48 4 56 48 8 60 48 12 64 48 113 68 48 117 72 48 121 76 48 125 80 48 97 85 48 101 89 48 105 93 48 109 97 48 80 101 48 85 105 48 89 109 48 93 113 48 64 117 48 68 121 48 72 125 48 76 129 48 178 133 48 182 137 48 186 141 48 190 145 48 161 149 48 165 153 48 170 157 48 174 161 48 145 165 48 149 170 48 153 174 48 157 178 48 129 182 48 133 186 48 137 190 48 141 194 48 242 198 48 246 202 48 250 206 48 255 210 48 226 214 48 230 218 48 234 222 48 238 226 48 210 230 48 214 234 48 218 238 48 222 242 48 194 246 48 198 250 48 202 255 48 206
0 52 52 4 52 48 8 52 60 12 52 56 16 52 36 20 52 32 24 52 44 28 52 40 32 52 20 36 52 16 40 52 28 44 52 24 48 52 4 52 52 0 56 52 12 60 52 8 64 52 117 68 52 113 72 52 125 76 52 121 80 52 101 85 52 97 89 52 109 93 52 105 97 52 85 101 52 80 105 52 93 109 52 89 113 52 68 117 52 64 121 52 76 125 52 72 129 52 182 133 52 178 137 52 190 141 52 186 145 52 165 149 52 161 153 52 174 157 52 170 161 52 149 165 52 145 170 52 157 174 52 153 178 52 133 182 52 129 186 52 141 190 52 137 194 52 246 198 52 242 202 52 255 206 52 250 210 52 230 214 52 226 218 52 238 222 52 234 226 52 214 230 52 210 234 52 222 238 52 218 242 52 198 246 52 194 250 52 206 255 52 202
0 56 56 4 56 60 8 56 48 12 56 52 16 56 40 20 56 44 24 56 32 28 56 36 32 56 24 36 56 28 40 56 16 44 56 20 48 56 8 52 56 12 56 56 0 60 56 4 64 56 121 68 56 125 72 56 113 76 56 117 80 56 105 85 56 109 89 56 97 93 56 101 97 56 89 101 56 93 105 56 80 109 56 85 113 56 72 117 56 76 121 56 64 125 56 68 129 56 186 133 56 190 137 56 178 141 56 182 145 56 170 149 56 174 153 56 161 157 56 165 161 56 153 165 56 157 170 56 145 174 56 149 178 56 137 182 56 141 186 56 129 190 56 133 194 56 250 198 56 255 202 56 242 206 56 246 210 56 234 214 56 238 218 56 226 222 56 230 226 56 218 230 56 222 234 56 210 238 56 214 242 56 202 246 56 206 250 56 194 255 56 198
0 60 60 4 60 56 8 60 52 12 60 48 16 60 44 20 60 40 24 60 36 28 60 32 32 60 28 36 60 24 40 60 20 44 60 16 48 60 12 52 60 8 56 60 4 60 60 0 64 60 125 68 60 121 72 60 117 76 60 113 80 60 109 85 60 105 89 60 101 93 60 97 97 60 93 101 60 89 105 60 85 109 60 80 113 60 76 117 60 72 121 60 68 125 60 64 129 60 190 133 60 186 137 60 182 141 60 178 145 60 174 149 60 170 153 60 165 157 60 161 161 60 157 165 60 153 170 60 149 174 60 145 178 60 141 182 60 137 186 60 133 190 60 129 194 60 255 198 60 250 202 60 246 206 60 242 210 60 238 214 60 234 218 60 230 222 60 226 226 60 222 230 60 218 234 60 214 238 60 210 242 60 206 246 60 202 250 60 198 255 60 194
0 64 64 4 64 68 8 64 72 12 64 76 16 64 80 20 64 85 24 64 89 28 64 93 32 64 97 36 64 101 40 64 105 44 64 109 48 64 113 52 64 117 56 64 121 60 64 125 64 64 0 68 64 4 72 64 8 76 64 12 80 64 16 85 64 20 89 64 24 93 64 28 97 64 32 101 64 36 105 64 40 109 64 44 113 64 48 117 64 52 121 64 56 125 64 60 129 64 194 133 64 198 137 64 202 141 64 206 145 64 210 149 64 214 153 64 218 157 64 222 161 64 226 165 64 230 170 64 234 174 64 238 178 64 242 182 64 246 186 64 250 190 64 255 194 64 129 198 64 133 202 64 137 206 64 141 210 64 145 214 64 149 218 64 153 222 64 157 226 64 161 230 64 165 234 64 170 238 64 174 242 64 178 246 64 182 250 64 186 255 64 190
0 68 68 4 68 64 8 68 76 12 68 72 16 68 85 20 68 80 24 68 93 28 68 89 32 68 101 36 68 97 40 68 109 44 68 105 48 68 117 52 68 113 56 68 125 60 68 121 64 68 4 68 68 0 72 68 12 76 68 8 80 68 20 85 68 16 89 68 28 93 68 24 97 68 36 101 68 32 105 68 44 109 68 40 113 68 52 117 68 48 121 68 60 125 68 56 129 68 198 133 68 194 137 68 206 141 68 202 145 68 214 149 68 210 153 68 222 157 68 218 161 68 230 165 68 226 170 68 238 174 68 234 178 68 246 182 68 242 186 68 255 190 68 250 194 68 133 198 68 129 202 68 141 206 68 137 210 68 149 214 68 145 218 68 157 222 68 153 226 68 165 230 68 161 234 68 174 238 68 170 242 68 182 246 68 178 250 68 190 255 68 186
0 72 72 4 72 76 8 72 64 12 72 68 16 72 89 20 72 93 24 72 80 28 72 85 32 72 105 36 72 109 40 72 97 44 72 101 48 72 121 52 72 125 56 72 113 60 72 117 64 72 8 68 72 12 72 72 0 76 72 4 80 72 24 85 72 28 89 72 16 93 72 20 97 72 40 101 72 44 105 72 32 109 72 36 113 72 56 117 72 60 121 72 48 125 72 52 129 72 202 133 72 206 137 72 194 141 72 198 145 72 218 149 72 222 153 72 210 157 72 214 161 72 234 165 72 238 170 72 226 174 72 230 178 72 250 182 72 255 186 72 242 190 72 246 194 72 137 198 72 141 202 72 129 206 72 133 210 72 153 214 72 157 218 72 145 222 72 149 226 72 170 230 72 174 234 72 161 238 72 165 242 72 186 246 72 190 250 72 178 255 72 182
0 76 76 4 76 72 8 76 68 12 76 64 16 76 93 20 76 89 24 76 85 28 76 80 32 76 109 36 76 105 40 76 101 44 76 97 48 76 125 52 76 121 56 76 117 60 76 113 64 76 12 68 76 8 72 76 4 76 76 0 80 76 28 85 76 24 89 76 20 93 76 16 97 76 44 101 76 40 105 76 36 109 76 32 113 76 60 117 76 56 121 76 52 125 76 48 129 76 206 133 76 202 137 76 198 141 76 194 145 76 222 149 76 218 153 76 214 157 76 210 161 76 238 165 76 234 170 76 230 174 76 226 178 76 255 182 76 250 186 76 246 190 76 242 194 76 141 198 76 137 202 76 133 206 76 129 210 76 157 214 76 153 218 76 149 222 76 145 226 76 174 230 76 170 234 76 165 238 76 161 242 76 190 246 76 186 250 76 182 255 76 178
0 80 80 4 80 85 8 80 89 12 80 93 16 80 64 20 80 68 24 80 72 28 80 76 32 80 113 36 80 117 40 80 121 44 80 125 48 80 97 52 80 101 56 80 105 60 80 109 64 80 16 68 80 20 72 80 24 76 80 28 80 80 0 85 80 4 89 80 8 93 80 12 97 80 48 101 80 52 105 80 56 109 80 60 113 80 32 117 80 36 121 80 40 125 80 44 129 80 210 133 80 214 137 80 218 141 80 222 145 80 194 149 80 198 153 80 202 157 80 206 161 80 242 165 80 246 170 80 250 174 80 255 178 80 226 182 80 230 186 80 234 190 80 238 194 80 145 198 80 149 202 80 153 206 80 157 210 80 129 214 80 133 218 80 137 222 80 141 226 80 178 230 80 182 234 80 186 238 80 190 242 80 161 246 80 165 250 80 170 255 80 174
0 85 85 4 85 80 8 85 93 12 85 89 16 85 68 20 85 64 24 85 76 28 85 72 32 85 117 36 85 113 40 85 125 44 85 121 48 85 101 52 85 97 56 85 109 60 85 105 64 85 20 68 85 16 72 85 28 76 85 24 80 85 4 85 85 0 89 85 12 93 85 8 97 85 52 101 85 48 105 85 60 109 85 56 113 85 36 117 85 32 121 85 44 125 85 40 129 85 214 133 85 210 137 85 222 141 85 218 145 85 198 149 85 194 153 85 206 157 85 202 161 85 246 165 85 242 170 85 255 174 85 250 178 85 230 182 85 226 186 85 238 190 85 234 194 85 149 198 85 145 202 85 157 206 85 153 210 85 133 214 85 129 218 85 141 222 85 137 226 85 182 230 85 178 234 85 190 238 85 186 242 85 165 246 85 161 250 85 174 255 85 170
0 89 89 4 89 93 8 89 80 12 89 85 16 89 72 20 89 76 24 89 64 28 89 68 32 89 121 36 89 125 40 89 113 44 89 117 48 89 105 52 89 109 56 89 97 60 89 101 64 89 24 68 89 28 72 89 16 76 89 20 80 89 8 85 89 12 89 89 0 93 89 4 97 89 56 101 89 60 105 89 48 109 89 52 113 89 40 117 89 44 121 89 32 125 89 36 129 89 218 133 89 222 137 89 210 141 89 214 145 89 202 149 89 206 153 89 194 157 89 198 161 89 250 165 89 255 170 89 242 174 89 246 178 89 234 182 89 238 186 89 226 190 89 230 194 89 153 198 89 157 202 89 145 206 89 149 210 89 137 214 89 141 218 89 129 222 89 133 226 89 186 230 89 190 234 89 178 238 89 182 242 89 170 246 89 174 250 89 161 255 89 165
0 93 93 4 93 89 8 93 85 12 93 80 16 93 76 20 93 72 24 93 68 28 93 64 32 93 125 36 93 121 40 93 117 44 93 113 48 93 109 52 93 105 56 93 101 60 93 97 64 93 28 68 93 24 72 93 20 76 93 16 80 93 12 85 93 8 89 93 4 93 93 0 97 93 60 101 93 56 105 93 52 109 93 48 113 93 44 117 93 40 121 93 36 125 93 32 129 93 222 133 93 218 137 93 214 141 93 210 145 93 206 149 93 202 153 93 198 157 93 194 161 93 255 165 93 250 170 93 246 174 93 242 178 93 238 182 93 234 186 93 230 190 93 226 194 93 157 198 93 153 202 93 149 206 93 145 210 93 141 214 93 137 218 93 133 222 93 129 226 93 190 230 93 186 234 93 182 238 93 178 242 93 174 246 93 170 250 93 165 255 93 161
0 97 97 4 97 101 8 97 105 12 97 109 16 97 113 20 97 117 24 97 121 28 97 125 32 97 64 36 97 68 40 97 72 44 97 76 48 97 80 52 97 85 56 97 89 60 97 93 64 97 32 68 97 36 72 97 40 76 97 44 80 97 48 85 97 52 89 97 56 93 97 60 97 97 0 101 97 4 105 97 8 109 97 12 113 97 16 117 97 20 121 97 24 125 97 28 129 97 226 133 97 230 137 97 234 141 97 238 145 97 242 149 97 246 153 97 250 157 97 255 161 97 194 165 97 198 170 97 202 174 97 206 178 97 210 182 97 214 186 97 218 190 97 222 194 97 161 198 97 165 202 97 170 206 97 174 210 97 178 214 97 182 218 97 186 222 97 190 226 97 129 230 97 133 234 97 137 238 97 141 242 97 145 246 97 149 250 97 153 255 97 157
0 101 101 4 101 97 8 101 109 12 101 105 16 101 117 20 101 113 24 101 125 28 101 121 32 101 68 36 101 64 40 101 76 44 101 72 48 101 85 52 101 80 56 101 93 60 101 89 64 101 36 68 101 32 72 101 44 76 101 40 80 101 52 85 101 48 89 101 60 93 101 56 97 101 4 101 101 0 105 101 12 109 101 8 113 101 20 117 101 16 121 101 28 125 101 24 129 101 230 133 101 226 137 101 238 141 101 234 145 101 246 149 101 242 153 101 255 157 101 250 161 101 198 165 101 194 170 101 206 174 101 202 178 101 214 182 101 210 186 101 222 190 101 218 194 101 165 198 101 161 202 101 174 206 101 170 210 101 182 214 101 178 218 101 190 222 101 186 226 101 133 230 101 129 234 101 141 238 101 137 242 101 149 246 101 145 250 101 157 255 101 153
0 105 105 4 105 109 8 105 97 12 105 101 16 105 121 20 105 125 24 105 113 28 105 117 32 105 72 36 105 76 40 105 64 44 105 68 48 105 89 52 105 93 56 105 80 60 105 85 64 105 40 68 105 44 72 105 32 76 105 36 80 105 56 85 105 60 89 105 48 93 105 52 97 105 8 101 105 12 105 105 0 109 105 4 113 105 24 117 105 28 121 105 16 125 105 20 129 105 234 133 105 238 137 105 226 141 105 230 145 105 250 149 105 255 153 105 242 157 105 246 161 105 202 165 105 206 170 105 194 174 105 198 178 105 218 182 105 222 186 105 210 190 105 214 194 105 170 198 105 174 202 105 161 206 105 165 210 105 186 214 105 190 218 105 178 222 105 182 226 105 137 230 105 141 234 105 129 238 105 133 242 105 153 246 105 157 250 105 145 255 105 149
0 109 109 4 109 105 8 109 101 12 109 97 16 109 125 20 109 121 24 109 117 28 109 113 32 109 76 36 109 72 40 109 68 44 109 64 48 109 93 52 109 89 56 109 85 60 109 80 64 109 44 68 109 40 72 109 36 76 109 32 80 109 60 85 109 56 89 109 52 93 109 48 97 109 12 101 109 8 105 109 4 109 109 0 113 109 28 117 109 24 121 109 20 125 109 16 129 109 238 133 109 234 137 109 230 141 109 226 145 109 255 149 109 250 153 109 246 157 109 242 161 109 206 165 109 202 170 109 198 174 109 194 178 109 222 182 109 218 186 109 214 190 109 210 194 109 174 198 109 170 202 109 165 206 109 161 210 109 190 214 109 186 218 109 182 222 109 178 226 109 141 230 109 137 234 109 133 238 109 129 242 109 157 246 109 153 250 109 149 255 109 145
0 113 113 4 113 117 8 113 121 12 113 125 16 113 97 20 113 101 24 113 105 28 113 109 32 113 80 36 113 85 40 113 89 44 113 93 48 113 64 52 113 68 56 113 72 60 113 76 64 113 48 68 113 52 72 113 56 76 113 60 80 113 32 85 113 36 89 113 40 93 113 44 97 113 16 101 113 20 105 113 24 109 113 28 113 113 0 117 113 4 121 113 8 125 113 12 129 113 242 133 113 246 137 113 250 141 113 255 145 113 226 149 113 230 153 113 234 157 113 238 161 113 210 165 113 214 170 113 218 174 113 222 178 113 194 182 113 198 186 113 202 190 113 206 194 113 178 198 113 182 202 113 186 206 113 190 210 113 161 214 113 165 218 113 170 222 113 174 226 113 145 230 113 149 234 113 153 238 113 157 242 113 129 246 113 133 250 113 137 255 113 141
0 117 117 4 117 113 8 117 125 12 117 121 16 117 101 20 117 97 24 117 109 28 117 105 32 117 85 36 117 80 40 117 93 44 117 89 48 117 68 52 117 64 56 117 76 60 117 72 64 117 52 68 117 48 72 117 60 76 117 56 80 117 36 85 117 32 89 117 44 93 117 40 97 117 20 101 117 16 105 117 28 109 117 24 113 117 4 117 117 0 121 117 12 125 117 8 129 117 246 133 117 242 137 117 255 141 117 250 145 117 230 149 117 226 153 117 238 157 117 234 161 117 214 165 117 210 170 117 222 174 117 218 178 117 198 182 117 194 186 117 206 190 117 202 194 117 182 198 117 178 202 117 190 206 117 186 210 117 165 214 117 161 218 117 174 222 117 170 226 117 149 230 117 145 234 117 157 238 117 153 242 117 133 246 117 129 250 117 141 255 117 137
0 121 121 4 121 125 8 121 113 12 121 117 16 121 105 20 121 109 24 121 97 28 121 101 32 121 89 36 121 93 40 121 80 44 121 85 48 121 72 52 121 76 56 121 64 60 121 68 64 121 56 68 121 60 72 121 48 76 121 52 80 121 40 85 121 44 89 121 32 93 121 36 97 121 24 101 121 28 105 121 16 109 121 20 113 121 8 117 121 12 121 121 0 125 121 4 129 121 250 133 121 255 137 121 242 141 121 246 145 121 234 149 121 238 153 121 226 157 121 230 161 121 218 165 121 222 170 121 210 174 121 214 178 121 202 182 121 206 186 121 194 190 121 198 194 121 186 198 121 190 202 121 178 206 121 182 210 121 170 214 121 174 218 121 161 222 121 165 226 121 153 230 121 157 234 121 145 238 121 149 242 121 137 246 121 141 250 121 129 255 121 133
0 125 125 4 125 121 8 125 117 12 125 113 16 125 109 20 125 105 24 125 101 28 125 97 32 125 93 36 125 89 40 125 85 44 125 80 48 125 76 52 125 72 56 125 68 60 125 64 64 125 60 68 125 56 72 125 52 76 125 48 80 125 44 85 125 40 89 125 36 93 125 32 97 125 28 101 125 24 105 125 20 109 125 16 113 125 12 117 125 8 121 125 4 125 125 0 129 125 255 133 125 250 137 125 246 141 125 242 145 125 238 149 125 234 153 125 230 157 125 226 161 125 222 165 125 218 170 125 214 174 125 210 178 125 206 182 125 202 186 125 198 190 125 194 194 125 190 198 125 186 202 125 182 206 125 178 210 125 174 214 125 170 218 125 165 222 125 161 226 125 157 230 125 153 234 125 149 238 125 145 242 125 141 246 125 137 250 125 133 255 125 129
0 129 129 4 129 133 8 129 137 12 129 141 16 129 145 20 129 149 24 129 153 28 129 157 32 129 161 36 129 165 40 129 170 44 129 174 48 129 178 52 129 182 56 129 186 60 129 190 64 129 194 68 129 198 72 129 202 76 129 206 80 129 210 85 129 214 89 129 218 93 129 222 97 129 226 101 129 230 105 129 234 109 129 238 113 129 242 117 129 246 121 129 250 125 129 255 129 129 0 133 129 4 137 129 8 141 129 12 145 129 16 149 129 20 153 129 24 157 129 28 161 129 32 165 129 36 170 129 40 174 129 44 178 129 48 182 129 52 186 129 56 190 129 60 194 129 64 198 129 68 202 129 72 206 129 76 210 129 80 214 129 85 218 129 89 222 129 93 226 129 97 230 129 101 234 129 105 238 129 109 242 129 113 246 129 117 250 129 121 255 129 125
0 133 133 4 133 129 8 133 141 12 133 137 16 133 149 20 133 145 24 133 157 28 133 153 32 133 165 36 133 161 40 133 174 44 133 170 48 133 182 52 133 178 56 133 190 60 133 186 64 133 198 68 133 194 72 133 206 76 133 202 80 133 214 85 133 210 89 133 222 93 133 218 97 133 230 101 133 226 105 133 238 109 133 234 113 133 246 117 133 242 121 133 255 125 133 250 129 133 4 133 133 0 137 133 12 141 133 8 145 133 20 149 133 16 153 133 28 157 133 24 161 133 36 165 133 32 170 133 44 174 133 40 178 133 52 182 133 48 186 133 60 190 133 56 194 133 68 198 133 64 202 133 76 206 133 72 210 133 85 214 133 80 218 133 93 222 133 89 226 133 101 230 133 97 234 133 109 238 133 105 242 133 117 246 133 113 250 133 125 255 133 121
0 137 137 4 137 141 8 137 129 12 137 133 16 137 153 20 137 157 24 137 145 28 137 149 32 137 170 36 137 174 40 137 161 44 137 165 48 137 186 52 137 190 56 137 178 60 137 182 64 137 202 68 137 206 72 137 194 76 137 198 80 137 218 85 137 222 89 137 210 93 137 214 97 137 234 101 137 238 105 137 226 109 137 230 113 137 250 117 137 255 121 137 242 125 137 246 129 137 8 133 137 12 137 137 0 141 137 4 145 137 24 149 137 28 153 137 16 157 137 20 161 137 40 165 137 44 170 137 32 174 137 36 178 137 56 182 137 60 186 137 48 190 137 52 194 137 72 198 137 76 202 137 64 206 137 68 210 137 89 214 137 93 218 137 80 222 137 85 226 137 105 230 137 109 234 137 97 238 137 101 242 137 121 246 137 125 250 137 113 255 137 117
0 141 141 4 141 137 8 141 133 12 141 129 16 141 157 20 141 153 24 141 149 28 141 145 32 141 174 36 141 170 40 141 165 44 141 161 48 141 190 52 141 186 56 141 182 60 141 178 64 141 206 68 141 202 72 141 198 76 141 194 80 141 222 85 141 218 89 141 214 93 141 210 97 141 238 101 141 234 105 141 230 109 141 226 113 141 255 117 141 250 121 141 246 125 141 242 129 141 12 133 141 8 137 141 4 141 141 0 145 141 28 149 141 24 153 141 20 157 141 16 161 141 44 165 141 40 170 141 36 174 141 32 178 141 60 182 141 56 186 141 52 190 141 48 194 141 76 198 141 72 202 141 68 206 141 64 210 141 93 214 141 89 218 141 85 222 141 80 226 141 109 230 141 105 234 141 101 238 141 97 242 141 125 246 141 121 250 141 117 255 141 113
0 145 145 4 145 149 8 145 153 12 145 157 16 145 129 20 145 133 24 145 137 28 145 141 32 145 178 36 145 182 40 145 186 44 145 190 48 145 161 52 145 165 56 145 170 60 145 174 64 145 210 68 145 214 72 145 218 76 145 222 80 145 194 85 145 198 89 145 202 93 145 206 97 145 242 101 145 246 105 145 250 109 145 255 113 145 226 117 145 230 121 145 234 125 145 238 129 145 16 133 145 20 137 145 24 141 145 28 145 145 0 149 145 4 153 145 8 157 145 12 161 145 48 165 145 52 170 145 56 174 145 60 178 145 32 182 145 36 186 145 40 190 145 44 194 145 80 198 145 85 202 145 89 206 145 93 210 145 64 214 145 68 218 145 72 222 145 76 226 145 113 230 145 117 234 145 121 238 145 125 242 145 97 246 145 101 250 145 105 255 145 109
0 149 149 4 149 145 8 149 157 12 149 153 16 149 133 20 149 129 24 149 141 28 149 137 32 149 182 36 149 178 40 149 190 44 149 186 48 149 165 52 149 161 56 149 174 60 149 170 64 149 214 68 149 210 72 149 222 76 149 218 80 149 198 85 149 194 89 149 206 93 149 202 97 149 246 101 149 242 105 149 255 109 149 250 113 149 230 117 149 226 121 149 238 125 149 234 129 149 20 133 149 16 137 149 28 141 149 24 145 149 4 149 149 0 153 149 12 157 149 8 161 149 52 165 149 48 170 149 60 174 149 56 178 149 36 182 149 32 186 149 44 190 149 40 194 149 85 198 149 80 202 149 93 206 149 89 210 149 68 214 149 64 218 149 76 222 149 72 226 149 117 230 149 113 234 149 125 238 149 121 242 149 101 246 149 97 250 149 109 255 149 105
0 153 153 4 153 157 8 153 145 12 153 149 16 153 137 20 153 141 24 153 129 28 153 133 32 153 186 36 153 190 40 153 178 44 153 182 48 153 170 52 153 174 56 153 161 60 153 165 64 153 218 68 153 222 72 153 210 76 153 214 80 153 202 85 153 206 89 153 194 93 153 198 97 153 250 101 153 255 105 153 242 109 153 246 113 153 234 117 153 238 121 153 226 125 153 230 129 153 24 133 153 28 137 153 16 141 153 20 145 153 8 149 153 12 153 153 0 157 153 4 161 153 56 165 153 60 170 153 48 174 153 52 178 153 40 182 153 44 186 153 32 190 153 36 194 153 89 198 153 93 202 153 80 206 153 85 210 153 72 214 153 76 218 153 64 222 153 68 226 153 121 230 153 125 234 153 113 238 153 117 242 153 105 246 153 109 250 153 97 255 153 101
0 157 157 4 157 153 8 157 149 12 157 145 16 157 141 20 157 137 24 157 133 28 157 129 32 157 190 36 157 186 40 157 182 44 157 178 48 157 174 52 157 170 56 157 165 60 157 161 64 157 222 68 157 218 72 157 214 76 157 210 80 157 206 85 157 202 89 157 198 93 157 194 97 157 255 101 157 250 105 157 246 109 157 242 113 157 238 117 157 234 121 157 230 125 157 226 129 157 28 133 157 24 137 157 20 141 157 16 145 157 12 149 157 8 153 157 4 157 157 0 161 157 60 165 157 56 170 157 52 174 157 48 178 157 44 182 157 40 186 157 36 190 157 32 194 157 93 198 157 89 202 157 85 206 157 80 210 157 76 214 157 72 218 157 68 222 157 64 226 157 125 230 157 121 234 157 117 238 157 113 242 157 109 246 157 105 250 157 101 255 157 97
0 161 161 4 161 165 8 161 170 12 161 174 16 161 178 20 161 182 24 161 186 28 161 190 32 161 129 36 161 133 40 161 137 44 161 141 48 161 145 52 161 149 56 161 153 60 161 157 64 161 226 68 161 230 72 161 234 76 161 238 80 161 242 85 161 246 89 161 250 93 161 255 97 161 194 101 161 198 105 161 202 109 161 206 113 161 210 117 161 214 121 161 218 125 161 222 129 161 32 133 161 36 137 161 40 141 161 44 145 161 48 149 161 52 153 161 56 157 161 60 161 161 0 165 161 4 170 161 8 174 161 12 178 161 16 182 161 20 186 161 24 190 161 28 194 161 97 198 161 101 202 161 105 206 161 109 210 161 113 214 161 117 218 161 121 222 161 125 226 161 64 230 161 68 234 161 72 238 161 76 242 161 80 246 161 85 250 161 89 255 161 93
0 165 165 4 165 161 8 165 174 12 165 170 16 165 182 20 165 178 24 165 190 28 165 186 32 165 133 36 165 129 40 165 141 44 165 137 48 165 149 52 165 145 56 165 157 60 165 153 64 165 230 68 165 226 72 165 238 76 165 234 80 165 246 85 165 242 89 165 255 93 165 250 97 165 198 101 165 194 105 165 206 109 165 202 113 165 214 117 165 210 121 165 222 125 165 218 129 165 36 133 165 32 137 165 44 141 165 40 145 165 52 149 165 48 153 165 60 157 165 56 161 165 4 165 165 0 170 165 12 174 165 8 178 165 20 182 165 16 186 165 28 190 165 24 194 165 101 198 165 97 202 165 109 206 165 105 210 165 117 214 165 113 218 165 125 222 165 121 226 165 68 230 165 64 234 165 76 238 165 72 242 165 85 246 165 80 250 165 93 255 165 89
0 170 170 4 170 174 8 170 161 12 170 165 16 170 186 20 170 190 24 170 178 28 170 182 32 170 137 36 170 141 40 170 129 44 170 133 48 170 153 52 170 157 56 170 145 60 170 149 64 170 234 68 170 238 72 170 226 76 170 230 80 170 250 85 170 255 89 170 242 93 170 246 97 170 202 101 170 206 105 170 194 109 170 198 113 170 218 117 170 222 121 170 210 125 170 214 129 170 40 133 170 44 137 170 32 141 170 36 145 170 56 149 170 60 153 170 48 157 170 52 161 170 8 165 170 12 170 170 0 174 170 4 178 170 24 182 170 28 186 170 16 190 170 20 194 170 105 198 170 109 202 170 97 206 170 101 210 170 121 214 170 125 218 170 113 222 170 117 226 170 72 230 170 76 234 170 64 238 170 68 242 170 89 246 170 93 250 170 80 255 170 85
0 174 174 4 174 170 8 174 165 12 174 161 16 174 190 20 174 186 24 174 182 28 174 178 32 174 141 36 174 137 40 174 133 44 174 129 48 174 157 52 174 153 56 174 149 60 174 145 64 174 238 68 174 234 72 174 230 76 174 226 80 174 255 85 174 250 89 174 246 93 174 242 97 174 206 101 174 202 105 174 198 109 174 194 113 174 222 117 174 218 121 174 214 125 174 210 129 174 44 133 174 40 137 174 36 141 174 32 145 174 60 149 174 56 153 174 52 157 174 48 161 174 12 165 174 8 170 174 4 174 174 0 178 174 28 182 174 24 186 174 20 190 174 16 194 174 109 198 174 105 202 174 101 206 174 97 210 174 125 214 174 121 218 174 117 222 174 113 226 174 76 230 174 72 234 174 68 238 174 64 242 174 93 246 174 89 250 174 85 255 174 80
0 178 178 4 178 182 8 178 186 12 178 190 16 178 161 20 178 165 24 178 170 28 178 174 32 178 145 36 178 149 40 178 153 44 178 157 48 178 129 52 178 133 56 178 137 60 178 141 64 178 242 68 178 246 72 178 250 76 178 255 80 178 226 85 178 230 89 178 234 93 178 238 97 178 210 101 178 214 105 178 218 109 178 222 113 178 194 117 178 198 121 178 202 125 178 206 129 178 48 133 178 52 137 178 56 141 178 60 145 178 32 149 178 36 153 178 40 157 178 44 161 178 16 165 178 20 170 178 24 174 178 28 178 178 0 182 178 4 186 178 8 190 178 12 194 178 113 198 178 117 202 178 121 206 178 125 210 178 97 214 178 101 218 178 105 222 178 109 226 178 80 230 178 85 234 178 89 238 178 93 242 178 64 246 178 68 250 178 72 255 178 76
0 182 182 4 182 178 8 182 190 12 182 186 16 182 165 20 182 161 24 182 174 28 182 170 32 182 149 36 182 145 40 182 157 44 182 153 48 182 133 52 182 129 56 182 141 60 182 137 64 182 246 68 182 242 72 182 255 76 182 250 80 182 230 85 182 226 89 182 238 93 182 234 97 182 214 101 182 210 105 182 222 109 182 218 113 182 198 117 182 194 121 182 206 125 182 202 129 182 52 133 182 48 137 182 60 141 182 56 145 182 36 149 182 32 153 182 44 157 182 40 161 182 20 165 182 16 170 182 28 174 182 24 178 182 4 182 182 0 186 182 12 190 182 8 194 182 117 198 182 113 202 182 125 206 182 121 210 182 101 214 182 97 218 182 109 222 182 105 226 182 85 230 182 80 234 182 93 238 182 89 242 182 68 246 182 64 250 182 76 255 182 72
0 186 186 4 186 190 8 186 178 12 186 182 16 186 170 20 186 174 24 186 161 28 186 165 32 186 153 36 186 157 40 186 145 44 186 149 48 186 137 52 186 141 56 186 129 60 186 133 64 186 250 68 186 255 72 186 242 76 186 246 80 186 234 85 186 238 89 186 226 93 186 230 97 186 218 101 186 222 105 186 210 109 186 214 113 186 202 117 186 206 121 186 194 125 186 198 129 186 56 133 186 60 137 186 48 141 186 52 145 186 40 149 186 44 153 186 32 157 186 36 161 186 24 165 186 28 170 186 16 174 186 20 178 186 8 182 186 12 186 186 0 190 186 4 194 186 121 198 186 125 202 186 113 206 186 117 210 186 105 214 186 109 218 186 97 222 186 101 226 186 89 230 186 93 234 186 80 238 186 85 242 186 72 246 186 76 250 186 64 255 186 68
0 190 190 4 190 186 8 190 182 12 190 178 16 190 174 20 190 170 24 190 165 28 190 161 32 190 157 36 190 153 40 190 149 44 190 145 48 190 141 52 190 137 56 190 133 60 190 129 64 190 255 68 190 250 72 190 246 76 190 242 80 190 238 85 190 234 89 190 230 93 190 226 97 190 222 101 190 218 105 190 214 109 190 210 113 190 206 117 190 202 121 190 198 125 190 194 129 190 60 133 190 56 137 190 52 141 190 48 145 190 44 149 190 40 153 190 36 157 190 32 161 190 28 165 190 24 170 190 20 174 190 16 178 190 12 182 190 8 186 190 4 190 190 0 194 190 125 198 190 121 202 190 117 206 190 113 210 190 109 214 190 105 218 190 101 222 190 97 226 190 93 230 190 89 234 190 85 238 190 80 242 190 76 246 190 72 250 190 68 255 190 64
0 194 194 4 194 198 8 194 202 12 194 206 16 194 210 20 194 214 24 194 218 28 194 222 32 194 226 36 194 230 40 194 234 44 194 238 48 194 242 52 194 246 56 194 250 60 194 255 64 194 129 68 194 133 72 194 137 76 194 141 80 194 145 85 194 149 89 194 153 93 194 157 97 194 161 101 194 165 105 194 170 109 194 174 113 194 178 117 194 182 121 194 186 125 194 190 129 194 64 133 194 68 137 194 72 141 194 76 145 194 80 149 194 85 153 194 89 157 194 93 161 194 97 165 194 101 170 194 105 174 194 109 178 194 113 182 194 117 186 194 121 190 194 125 194 194 0 198 194 4 202 194 8 206 194 12 210 194 16 214 194 20 218 194 24 222 194 28 226 194 32 230 194 36 234 194 40 238 194 44 242 194 48 246 194 52 250 194 56 255 194 60
0 198 198 4 198 194 8 198 206 12 198 202 16 198 214 20 198 210 24 198 222 28 198 218 32 198 230 36 198 226 40 198 238 44 198 234 48 198 246 52 198 242 56 198 255 60 198 250 64 198 133 68 198 129 72 198 141 76 198 137 80 198 149 85 198 145 89 198 157 93 198 153 97 198 165 101 198 161 105 198 174 109 198 170 113 198 182 117 198 178 121 198 190 125 198 186 129 198 68 133 198 64 137 198 76 141 198 72 145 198 85 149 198 80 153 198 93 157 198 89 161 198 101 165 198 97 170 198 109 174 198 105 178 198 117 182 198 113 186 198 125 190 198 121 194 198 4 198 198 0 202 198 12 206 198 8 210 198 20 214 198 16 218 198 28 222 198 24 226 198 36 230 198 32 234 198 44 238 198 40 242 198 52 246 198 48 250 198 60 255 198 56
0 202 202 4 202 206 8 202 194 12 202 198 16 202 218 20 202 222 24 202 210 28 202 214 32 202 234 36 202 238 40 202 226 44 202 230 48 202 250 52 202 255 56 202 242 60 202 246 64 202 137 68 202 141 72 202 129 76 202 133 80 202 153 85 202 157 89 202 145 93 202 149 97 202 170 101 202 174 105 202 161 109 202 165 113 202 186 117 202 190 121 202 178 125 202 182 129 202 72 133 202 76 137 202 64 141 202 68 145 202 89 149 202 93 153 202 80 157 202 85 161 202 105 165 202 109 170 202 97 174 202 101 178 202 121 182 202 125 186 202 113 190 202 117 194 202 8 198 202 12 202 202 0 206 202 4 210 202 24 214 202 28 218 202 16 222 202 20 226 202 40 230 202 44 234 202 32 238 202 36 242 202 56 246 202 60 250 202 48 255 202 52
0 206 206 4 206 202 8 206 198 12 206 194 16 206 222 20 206 218 24 206 214 28 206 210 32 206 238 36 206 234 40 206 230 44 206 226 48 206 255 52 206 250 56 206 246 60 206 242 64 206 141 68 206 137 72 206 133 76 206 129 80 206 157 85 206 153 89 206 149 93 206 145 97 206 174 101 206 170 105 206 165 109 206 161 113 206 190 117 206 186 121 206 182 125 206 178 129 206 76 133 206 72 137 206 68 141 206 64 145 206 93 149 206 89 153 206 85 157 206 80 161 206 109 165 206 105 170 206 101 174 206 97 178 206 125 182 206 121 186 206 117 190 206 113 194 206 12 198 206 8 202 206 4 206 206 0 210 206 28 214 206 24 218 206 20 222 206 16 226 206 44 230 206 40 234 206 36 238 206 32 242 206 60 246 206 56 250 206 52 255 206 48
0 210 210 4 210 214 8 210 218 12 210 222 16 210 194 20 210 198 24 210 202 28 210 206 32 210 242 36 210 246 40 210 250 44 210 255 48 210 226 52 210 230 56 210 234 60 210 238 64 210 145 68 210 149 72 210 153 76 210 157 80 210 129 85 210 133 89 210 137 93 210 141 97 210 178 101 210 182 105 210 186 109 210 190 113 210 161 117 210 165 121 210 170 125 210 174 129 210 80 133 210 85 137 210 89 141 210 93 145 210 64 149 210 68 153 210 72 157 210 76 161 210 113 165 210 117 170 210 121 174 210 125 178 210 97 182 210 101 186 210 105 190 210 109 194 210 16 198 210 20 202 210 24 206 210 28 210 210 0 214 210 4 218 210 8 222 210 12 226 210 48 230 210 52 234 210 56 238 210 60 242 210 32 246 210 36 250 210 40 255 210 44
0 214 214 4 214 210 8 214 222 12 214 218 16 214 198 20 214 194 24 214 206 28 214 202 32 214 246 36 214 242 40 214 255 44 214 250 48 214 230 52 214 226 56 214 238 60 214 234 64 214 149 68 214 145 72 214 157 76 214 153 80 214 133 85 214 129 89 214 141 93 214 137 97 214 182 101 214 178 105 214 190 109 214 186 113 214 165 117 214 161 121 214 174 125 214 170 129 214 85 133 214 80 137 214 93 141 214 89 145 214 68 149 214 64 153 214 76 157 214 72 161 214 117 165 214 113 170 214 125 174 214 121 178 214 101 182 214 97 186 214 109 190 214 105 194 214 20 198 214 16 202 214 28 206 214 24 210 214 4 214 214 0 218 214 12 222 214 8 226 214 52 230 214 48 234 214 60 238 214 56 242 214 36 246 214 32 250 214 44 255 214 40
0 218 218 4 218 222 8 218 210 12 218 214 16 218 202 20 218 206 24 218 194 28 218 198 32 218 250 36 218 255 40 218 242 44 218 246 48 218 234 52 218 238 56 218 226 60 218 230 64 218 153 68 218 157 72 218 145 76 218 149 80 218 137 85 218 141 89 218 129 93 218 133 97 218 186 101 218 190 105 218 178 109 218 182 113 218 170 117 218 174 121 218 161 125 218 165 129 218 89 133 218 93 137 218 80 141 218 85 145 218 72 149 218 76 153 218 64 157 218 68 161 218 121 165 218 125 170 218 113 174 218 117 178 218 105 182 218 109 186 218 97 190 218 101 194 218 24 198 218 28 202 218 16 206 218 20 210 218 8 214 218 12 218 218 0 222 218 4 226 218 56 230 218 60 234 218 48 238 218 52 242 218 40 246 218 44 250 218 32 255 218 36
0 222 222 4 222 218 8 222 214 12 222 210 16 222 206 20 222 202 24 222 198 28 222 194 32 222 255 36 222 250 40 222 246 44 222 242 48 222 238 52 222 234 56 222 230 60 222 226 64 222 157 68 222 153 72 222 149 76 222 145 80 222 141 85 222 137 89 222 133 93 222 129 97 222 190 101 222 186 105 222 182 109 222 178 113 222 174 117 222 170 121 222 165 125 222 161 129 222 93 133 222 89 137 222 85 141 222 80 145 222 76 149 222 72 153 222 68 157 222 64 161 222 125 165 222 121 170 222 117 174 222 113 178 222 109 182 222 105 186 222 101 190 222 97 194 222 28 198 222 24 202 222 20 206 222 16 210 222 12 214 222 8 218 222 4 222 222 0 226 222 60 230 222 56 234 222 52 238 222 48 242 222 44 246 222 40 250 222 36 255 222 32
0 226 226 4 226 230 8 226 234 12 226 238 16 226 242 20 226 246 24 226 250 28 226 255 32 226 194 36 226 198 40 226 202 44 226 206 48 226 210 52 226 214 56 226 218 60 226 222 64 226 161 68 226 165 72 226 170 76 226 174 80 226 178 85 226 182 89 226 186 93 226 190 97 226 129 101 226 133 105 226 137 109 226 141 113 226 145 117 226 149 121 226 153 125 226 157 129 226 97 133 226 101 137 226 105 141 226 109 145 226 113 149 226 117 153 226 121 157 226 125 161 226 64 165 226 68 170 226 72 174 226 76 178 226 80 182 226 85 186 226 89 190 226 93 194 226 32 198 226 36 202 226 40 206 226 44 210 226 48 214 226 52 218 226 56 222 226 60 226 226 0 230 226 4 234 226 8 238 226 12 242 226 16 246 226 20 250 226 24 255 226 28
0 230 230 4 230 226 8 230 238 12 230 234 16 230 246 20 230 242 24 230 255 28 230 250 32 230 198 36 230 194 40 230 206 44 230 202 48 230 214 52 230 210 56 230 222 60 230 218 64 230 165 68 230 161 72 230 174 76 230 170 80 230 182 85 230 178 89 230 190 93 230 186 97 230 133 101 230 129 105 230 141 109 230 137 113 230 149 117 230 145 121 230 157 125 230 153 129 230 101 133 230 97 137 230 109 141 230 105 145 230 117 149 230 113 153 230 125 157 230 121 161 230 68 165 230 64 170 230 76 174 230 72 178 230 85 182 230 80 186 230 93 190 230 89 194 230 36 198 230 32 202 230 44 206 230 40 210 230 52 214 230 48 218 230 60 222 230 56 226 230 4 230 230 0 234 230 12 238 230 8 242 230 20 246 230 16 250 230 28 255 230 24
0 234 234 4 234 238 8 234 226 12 234 230 16 234 250 20 234 255 24 234 242 28 234 246 32 234 202 36 234 206 40 234 194 44 234 198 48 234 218 52 234 222 56 234 210 60 234 214 64 234 170 68 234 174 72 234 161 76 234 165 80 234 186 85 234 190 89 234 178 93 234 182 97 234 137 101 234 141 105 234 129 109 234 133 113 234 153 117 234 157 121 234 145 125 234 149 129 234 105 133 234 109 137 234 97 141 234 101 145 234 121 149 234 125 153 234 113 157 234 117 161 234 72 165 234 76 170 234 64 174 234 68 178 234 89 182 234 93 186 234 80 190 234 85 194 234 40 198 234 44 202 234 32 206 234 36 210 234 56 214 234 60 218 234 48 222 234 52 226 234 8 230 234 12 234 234 0 238 234 4 242 234 24 246 234 28 250 234 16 255 234 20
0 238 238 4 238 234 8 238 230 12 238 226 16 238 255 20 238 250 24 238 246 28 238 242 32 238 206 36 238 202 40 238 198 44 238 194 48 238 222 52 238 218 56 238 214 60 238 210 64 238 174 68 238 170 72 238 165 76 238 161 80 238 190 85 238 186 89 238 182 93 238 178 97 238 141 101 238 137 105 238 133 109 238 129 113 238 157 117 238 153 121 238 149 125 238 145 129 238 109 133 238 105 137 238 101 141 238 97 145 238 125 149 238 121 153 238 117 157 238 113 161 238 76 165 238 72 170 238 68 174 238 64 178 238 93 182 238 89 186 238 85 190 238 80 194 238 44 198 238 40 202 238 36 206 238 32 210 238 60 214 238 56 218 238 52 222 238 48 226 238 12 230 238 8 234 238 4 238 238 0 242 238 28 246 238 24 250 238 20 255 238 16
0 242 242 4 242 246 8 242 250 12 242 255 16 242 226 20 242 230 24 242 234 28 242 238 32 242 210 36 242 214 40 242 218 44 242 222 48 242 194 52 242 198 56 242 202 60 242 206 64 242 178 68 242 182 72 242 186 76 242 190 80 242 161 85 242 165 89 242 170 93 242 174 97 242 145 101 242 149 105 242 153 109 242 157 113 242 129 117 242 133 121 242 137 125 242 141 129 242 113 133 242 117 137 242 121 141 242 125 145 242 97 149 242 101 153 242 105 157 242 109 161 242 80 165 242 85 170 242 89 174 242 93 178 242 64 182 242 68 186 242 72 190 242 76 194 242 48 198 242 52 202 242 56 206 242 60 210 242 32 214 242 36 218 242 40 222 242 44 226 242 16 230 242 20 234 242 24 238 242 28 242 242 0 246 242 4 250 242 8 255 242 12
0 246 246 4 246 242 8 246 255 12 246 250 16 246 230 20 246 226 24 246 238 28 246 234 32 246 214 36 246 210 40 246 222 44 246 218 48 246 198 52 246 194 56 246 206 60 246 202 64 246 182 68 246 178 72 246 190 76 246 186 80 246 165 85 246 161 89 246 174 93 246 170 97 246 149 101 246 145 105 246 157 109 246 153 113 246 133 117 246 129 121 246 141 125 246 137 129 246 117 133 246 113 137 246 125 141 246 121 145 246 101 149 246 97 153 246 109 157 246 105 161 246 85 165 246 80 170 246 93 174 246 89 178 246 68 182 246 64 186 246 76 190 246 72 194 246 52 198 246 48 202 246 60 206 246 56 210 246 36 214 246 32 218 246 44 222 246 40 226 246 20 230 246 16 234 246 28 238 246 24 242 246 4 246 246 0 250 246 12 255 246 8
0 250 250 4 250 255 8 250 242 12 250 246 16 250 234 20 250 238 24 250 226 28 250 230 32 250 218 36 250 222 40 250 210 44 250 214 48 250 202 52 250 206 56 250 194 60 250 198 64 250 186 68 250 190 72 250 178 76 250 182 80 250 170 85 250 174 89 250 161 93 250 165 97 250 153 101 250 157 105 250 145 109 250 149 113 250 137 117 250 141 121 250 129 125 250 133 129 250 121 133 250 125 137 250 113 141 250 117 145 250 105 149 250 109 153 250 97 157 250 101 161 250 89 165 250 93 170 250 80 174 250 85 178 250 72 182 250 76 186 250 64 190 250 68 194 250 56 198 250 60 202 250 48 206 250 52 210 250 40 214 250 44 218 250 32 222 250 36 226 250 24 230 250 28 234 250 16 238 250 20 242 250 8 246 250 12 250 250 0 255 250 4
0 255 255 4 255 250 8 255 246 12 255 242 16 255 238 20 255 234 24 255 230 28 255 226 32 255 222 36 255 218 40 255 214 44 255 210 48 255 206 52 255 202 56 255 198 60 255 194 64 255 190 68 255 186 72 255 182 76 255 178 80 255 174 85 255 170 89 255 165 93 255 161 97 255 157 101 255 153 105 255 149 109 255 145 113 255 141 117 255 137 121 255 133 125 255 129 129 255 125 133 255 121 137 255 117 141 255 113 145 255 109 149 255 105 153 255 101 157 255 97 161 255 93 165 255 89 170 255 85 174 255 80 178 255 76 182 255 72 186 255 68 190 255 64 194 255 60 198 255 56 202 255 52 206 255 48 210 255 44 214 255 40 218 255 36 222 255 32 226 255 28 230 255 24 234 255 20 238 255 16 242 255 12 246 255 8 250 255 4 255 255 0
